<?xml version="1.0" encoding="iso-8859-1"?>
<!-- Generator: Adobe Illustrator 19.0.0, SVG Export Plug-In . SVG Version: 6.00 Build 0)  -->
<svg version="1.1" id="Capa_1" xmlns="http://www.w3.org/2000/svg" xmlns:xlink="http://www.w3.org/1999/xlink" x="0px" y="0px"
	 viewBox="0 0 512 512" style="enable-background:new 0 0 512 512;" xml:space="preserve">
<g>
	<g>
		<path d="M256,295.616c-21.59,0-39.155,17.564-39.155,39.154c0,21.59,17.565,39.156,39.155,39.156
			c21.59,0,39.154-17.565,39.154-39.155C295.154,313.181,277.59,295.616,256,295.616z"/>
	</g>
</g>
<g>
	<g>
		<rect x="285.02" y="90.05" width="30.05" height="55.47"/>
	</g>
</g>
<g>
	<g>
		<path d="M439.573,0H405.12v235.568H106.88V0H0v512h512V72.427L439.573,0z M256,403.925c-38.132,0-69.155-31.022-69.155-69.155
			c0-38.131,31.023-69.154,69.155-69.154s69.154,31.022,69.154,69.154C325.154,372.903,294.132,403.925,256,403.925z"/>
	</g>
</g>
<g>
	<g>
		<path d="M136.88,0v205.568h238.24V0H136.88z M345.072,175.52h-90.048V60.048h90.048V175.52z"/>
	</g>
</g>
<g>
</g>
<g>
</g>
<g>
</g>
<g>
</g>
<g>
</g>
<g>
</g>
<g>
</g>
<g>
</g>
<g>
</g>
<g>
</g>
<g>
</g>
<g>
</g>
<g>
</g>
<g>
</g>
<g>
</g>
</svg>
